<svg width="44" height="50" viewBox="0 0 44 50" fill="none" xmlns="http://www.w3.org/2000/svg">
<path d="M1.875 41.5L19.0938 29.6875C21.6771 27.9167 23.7917 26.375 25.4375 25.0625C27.0833 23.75 28.375 22.5833 29.3125 21.5625C30.25 20.5208 30.8958 19.5833 31.25 18.75C31.6042 17.9167 31.7812 17.0833 31.7812 16.25C31.7812 15.2917 31.5833 14.3958 31.1875 13.5625C30.7917 12.7292 30.1667 12 29.3125 11.375C28.4792 10.75 27.3958 10.2604 26.0625 9.90625C24.75 9.55208 23.1771 9.375 21.3438 9.375C18.6771 9.375 16.0208 9.75 13.375 10.5C10.7292 11.25 8.03125 12.4479 5.28125 14.0938L0.71875 6.59375C3.78125 4.69792 7.09375 3.21875 10.6562 2.15625C14.2396 1.09375 18 0.5625 21.9375 0.5625C25.375 0.5625 28.3542 0.979167 30.875 1.8125C33.4167 2.625 35.5104 3.73958 37.1562 5.15625C38.8229 6.57292 40.0625 8.21875 40.875 10.0938C41.6875 11.9688 42.0938 13.9583 42.0938 16.0625C42.0938 17.6875 41.8229 19.2396 41.2812 20.7188C40.7396 22.1979 39.7917 23.7292 38.4375 25.3125C37.0833 26.8958 35.25 28.6042 32.9375 30.4375C30.6458 32.25 27.75 34.3125 24.25 36.625L17.125 41.3125H43.875V50H1.875V41.5Z" fill="#0070AD"/>
</svg>
