<svg width="45" height="50" viewBox="0 0 45 50" fill="none" xmlns="http://www.w3.org/2000/svg">
<path d="M4.65625 37.375C7.11458 38.5833 9.73958 39.4688 12.5312 40.0312C15.3438 40.5729 18.0833 40.8438 20.75 40.8438C23.125 40.8438 25.1771 40.6562 26.9062 40.2812C28.6354 39.8854 30.0625 39.3542 31.1875 38.6875C32.3125 38.0208 33.1458 37.2292 33.6875 36.3125C34.2292 35.3958 34.5 34.4062 34.5 33.3438C34.5 31.9062 34.0104 30.625 33.0312 29.5C32.0521 28.3542 30.5625 27.5 28.5625 26.9375C26.5833 26.3542 24.0729 26.125 21.0312 26.25C18.0104 26.375 14.4479 26.9688 10.3438 28.0312L10.375 20.7188L28.625 8.84375H2.78125V0.15625H41.875V8.65625L25.8125 18.8438C28.75 18.8438 31.375 19.2188 33.6875 19.9688C36 20.7188 37.9479 21.75 39.5312 23.0625C41.1146 24.375 42.3229 25.9271 43.1562 27.7188C43.9896 29.5104 44.4062 31.4375 44.4062 33.5C44.4062 35.9375 43.8646 38.1562 42.7812 40.1562C41.7188 42.1354 40.1667 43.8333 38.125 45.25C36.0833 46.6458 33.5833 47.7292 30.625 48.5C27.6875 49.2708 24.3542 49.6562 20.625 49.6562C16.6667 49.6562 13.0104 49.2396 9.65625 48.4062C6.30208 47.5521 3.11458 46.375 0.09375 44.875L4.65625 37.375Z" fill="#0070AD"/>
</svg>
