<svg width="47" height="50" viewBox="0 0 47 50" fill="none" xmlns="http://www.w3.org/2000/svg">
<path d="M5.28125 37.375C6.46875 37.9792 7.75 38.5 9.125 38.9375C10.5208 39.3542 11.9479 39.7083 13.4062 40C14.8854 40.2917 16.3646 40.5104 17.8438 40.6562C19.3438 40.7812 20.8021 40.8438 22.2188 40.8438C24.7188 40.8438 26.875 40.6667 28.6875 40.3125C30.5208 39.9375 32.0208 39.4167 33.1875 38.75C34.375 38.0833 35.25 37.2917 35.8125 36.375C36.3958 35.4375 36.6875 34.4062 36.6875 33.2812C36.6875 32.1354 36.3854 31.0833 35.7812 30.125C35.1979 29.1667 34.3125 28.3438 33.125 27.6562C31.9583 26.9688 30.4792 26.4375 28.6875 26.0625C26.9167 25.6667 24.8438 25.4688 22.4688 25.4688C21.4062 25.4688 20.2083 25.5208 18.875 25.625C17.5417 25.7083 16.125 25.8542 14.625 26.0625C13.125 26.2708 11.5625 26.5625 9.9375 26.9375C8.3125 27.2917 6.66667 27.7292 5 28.25V0.15625H42.4688V8.9375H14.1562V18.4062C15.7188 18.0521 17.3542 17.7604 19.0625 17.5312C20.7708 17.2812 22.6771 17.1562 24.7812 17.1562C28.2188 17.1562 31.2917 17.5312 34 18.2812C36.7083 19.0312 38.9896 20.1042 40.8438 21.5C42.7188 22.8958 44.1458 24.5833 45.125 26.5625C46.1042 28.5208 46.5938 30.7188 46.5938 33.1562C46.5938 35.6771 46.0625 37.9583 45 40C43.9583 42.0208 42.4062 43.75 40.3438 45.1875C38.3021 46.625 35.7812 47.7292 32.7812 48.5C29.8021 49.2708 26.375 49.6562 22.5 49.6562C20.5 49.6562 18.5104 49.5417 16.5312 49.3125C14.5729 49.1042 12.6667 48.8021 10.8125 48.4062C8.95833 47.9896 7.17708 47.4896 5.46875 46.9062C3.78125 46.3021 2.19792 45.625 0.71875 44.875L5.28125 37.375Z" fill="#0070AD"/>
</svg>
