<svg width="47" height="51" viewBox="0 0 47 51" fill="none" xmlns="http://www.w3.org/2000/svg">
<path d="M0.0625 26.9375C0.0625 22.5 0.71875 18.6354 2.03125 15.3438C3.36458 12.0312 5.17708 9.28125 7.46875 7.09375C9.78125 4.90625 12.5 3.27083 15.625 2.1875C18.75 1.10417 22.125 0.5625 25.75 0.5625C27.2708 0.5625 28.8125 0.645833 30.375 0.8125C31.9583 0.958333 33.5104 1.19792 35.0312 1.53125C36.5521 1.86458 38.0208 2.30208 39.4375 2.84375C40.875 3.36458 42.2083 3.98958 43.4375 4.71875L39.0312 12.2188C38.1146 11.6979 37.1354 11.2604 36.0938 10.9062C35.0729 10.5312 34.0104 10.2396 32.9062 10.0312C31.8021 9.80208 30.6875 9.63542 29.5625 9.53125C28.4375 9.42708 27.3333 9.375 26.25 9.375C23.8333 9.375 21.6458 9.6875 19.6875 10.3125C17.75 10.9375 16.0729 11.8229 14.6562 12.9688C13.2396 14.1146 12.1042 15.4896 11.25 17.0938C10.4167 18.6771 9.89583 20.4375 9.6875 22.375C10.7708 21.5208 11.9688 20.7812 13.2812 20.1562C14.5938 19.5312 15.9792 19.0208 17.4375 18.625C18.9167 18.2083 20.4271 17.9062 21.9688 17.7188C23.5312 17.5104 25.0938 17.4062 26.6562 17.4062C29.6979 17.4062 32.4583 17.7708 34.9375 18.5C37.4375 19.2292 39.5729 20.2812 41.3438 21.6562C43.1146 23.0312 44.4792 24.7083 45.4375 26.6875C46.4167 28.6458 46.9062 30.875 46.9062 33.375C46.9062 35.8333 46.4167 38.1146 45.4375 40.2188C44.4792 42.3229 43.0521 44.1562 41.1562 45.7188C39.2604 47.2604 36.9062 48.4792 34.0938 49.375C31.2812 50.25 28.0208 50.6875 24.3125 50.6875C20.7083 50.6875 17.4167 50.2292 14.4375 49.3125C11.4583 48.3958 8.90625 46.9688 6.78125 45.0312C4.65625 43.0938 3 40.6354 1.8125 37.6562C0.645833 34.6562 0.0625 31.0833 0.0625 26.9375ZM9.90625 31.5312C10.4062 34.9479 11.9062 37.5312 14.4062 39.2812C16.9062 41.0104 20.1875 41.875 24.25 41.875C26.2917 41.875 28.1042 41.6667 29.6875 41.25C31.2708 40.8333 32.6042 40.2604 33.6875 39.5312C34.7708 38.7812 35.5938 37.8958 36.1562 36.875C36.7188 35.8542 37 34.7396 37 33.5312C37 32.5104 36.7812 31.5521 36.3438 30.6562C35.9062 29.7604 35.2188 28.9896 34.2812 28.3438C33.3646 27.6771 32.1771 27.1562 30.7188 26.7812C29.2604 26.3854 27.5 26.1875 25.4375 26.1875C23.7083 26.1875 22.0729 26.3229 20.5312 26.5938C18.9896 26.8646 17.5625 27.2396 16.25 27.7188C14.9375 28.1979 13.7396 28.7604 12.6562 29.4062C11.5938 30.0521 10.6771 30.7604 9.90625 31.5312Z" fill="#0070AD"/>
</svg>
