<svg width="50" height="51" viewBox="0 0 50 51" fill="none" xmlns="http://www.w3.org/2000/svg">
<path d="M0.90625 35.125C0.90625 33.6667 1.10417 32.3125 1.5 31.0625C1.89583 29.8125 2.4375 28.6771 3.125 27.6562C3.8125 26.6146 4.60417 25.6979 5.5 24.9062C6.41667 24.0938 7.39583 23.3854 8.4375 22.7812C7 21.3646 5.95833 19.9583 5.3125 18.5625C4.66667 17.1458 4.34375 15.7917 4.34375 14.5C4.34375 12.4375 4.82292 10.5521 5.78125 8.84375C6.76042 7.13542 8.15625 5.66667 9.96875 4.4375C11.7812 3.1875 13.9792 2.22917 16.5625 1.5625C19.1458 0.875 22.0521 0.53125 25.2812 0.53125C28.5104 0.53125 31.4167 0.875 34 1.5625C36.5833 2.22917 38.7812 3.1875 40.5938 4.4375C42.4062 5.66667 43.7917 7.13542 44.75 8.84375C45.7292 10.5521 46.2188 12.4375 46.2188 14.5C46.2188 15.7917 45.8958 17.1458 45.25 18.5625C44.6042 19.9583 43.5625 21.3646 42.125 22.7812C43.1458 23.3854 44.1146 24.0938 45.0312 24.9062C45.9479 25.6979 46.75 26.6146 47.4375 27.6562C48.125 28.6771 48.6667 29.8125 49.0625 31.0625C49.4583 32.3125 49.6562 33.6667 49.6562 35.125C49.6562 37.5625 49.0833 39.75 47.9375 41.6875C46.8125 43.6042 45.1875 45.2292 43.0625 46.5625C40.9583 47.875 38.3958 48.8854 35.375 49.5938C32.375 50.3021 29.0104 50.6562 25.2812 50.6562C21.5521 50.6562 18.1771 50.3021 15.1562 49.5938C12.1562 48.8854 9.59375 47.875 7.46875 46.5625C5.36458 45.2292 3.73958 43.6042 2.59375 41.6875C1.46875 39.75 0.90625 37.5625 0.90625 35.125ZM14.25 14.9375C14.25 15.7083 14.4375 16.4375 14.8125 17.125C15.2083 17.7917 15.8333 18.3854 16.6875 18.9062C17.5625 19.4062 18.6979 19.8021 20.0938 20.0938C21.5104 20.3854 23.2396 20.5312 25.2812 20.5312C27.3229 20.5312 29.0417 20.3854 30.4375 20.0938C31.8542 19.8021 32.9896 19.4062 33.8438 18.9062C34.7188 18.3854 35.3438 17.7917 35.7188 17.125C36.1146 16.4375 36.3125 15.7083 36.3125 14.9375C36.3125 14.1667 36.1146 13.4479 35.7188 12.7812C35.3438 12.0938 34.7188 11.5 33.8438 11C32.9896 10.4792 31.8542 10.0729 30.4375 9.78125C29.0417 9.48958 27.3229 9.34375 25.2812 9.34375C23.2396 9.34375 21.5104 9.48958 20.0938 9.78125C18.6979 10.0729 17.5625 10.4792 16.6875 11C15.8333 11.5 15.2083 12.0938 14.8125 12.7812C14.4375 13.4479 14.25 14.1667 14.25 14.9375ZM10.8125 34.6562C10.8125 35.7188 11.1146 36.6979 11.7188 37.5938C12.3438 38.4688 13.2604 39.2188 14.4688 39.8438C15.6771 40.4688 17.1875 40.9583 19 41.3125C20.8125 41.6667 22.9062 41.8438 25.2812 41.8438C27.6562 41.8438 29.75 41.6667 31.5625 41.3125C33.375 40.9583 34.8854 40.4688 36.0938 39.8438C37.3021 39.2188 38.2083 38.4688 38.8125 37.5938C39.4375 36.6979 39.75 35.7188 39.75 34.6562C39.75 33.5938 39.4479 32.625 38.8438 31.75C38.2604 30.8542 37.3646 30.0938 36.1562 29.4688C34.9688 28.8438 33.4688 28.3542 31.6562 28C29.8438 27.6458 27.7188 27.4688 25.2812 27.4688C22.8438 27.4688 20.7188 27.6458 18.9062 28C17.0938 28.3542 15.5833 28.8438 14.375 29.4688C13.1875 30.0938 12.2917 30.8542 11.6875 31.75C11.1042 32.625 10.8125 33.5938 10.8125 34.6562Z" fill="#0070AD"/>
</svg>
